<svg xmlns="http://www.w3.org/2000/svg" style="width:0; height:0; visibility:hidden;">
    <symbol id="icon_logo" viewBox="0 0 32 32">
       <path fill="#fff" d="M17.049 1.106c0 0-1.106-1.106-1.106-1.106s-7.413 7.417-7.413 7.417c0 0-7.425-7.417-7.425-7.417s-1.106 1.106-1.106 1.106c0 0 7.425 7.433 7.425 7.433s-7.425 7.433-7.425 7.433c0 0 1.106 1.106 1.106 1.106s7.425-7.433 7.425-7.433c0 0 1.094-1.106 1.094-1.106s7.425-7.433 7.425-7.433c0 0 0 0 0 0z"/> <path fill="#fff" d="M15.356 1.106c0 0 1.106-1.106 1.106-1.106s7.413 7.417 7.413 7.417c0 0 7.425-7.417 7.425-7.417s1.106 1.106 1.106 1.106c0 0-7.425 7.433-7.425 7.433s7.425 7.433 7.425 7.433c0 0-1.106 1.106-1.106 1.106s-7.425-7.433-7.425-7.433c0 0-1.094-1.106-1.094-1.106s-7.425-7.433-7.425-7.433c0 0 0 0 0 0z"/> <path fill="#fff" d="M17.049 30.89c0 0-1.106 1.11-1.106 1.11s-7.413-7.421-7.413-7.421c0 0-7.425 7.421-7.425 7.421s-1.106-1.11-1.106-1.11c0 0 7.425-7.429 7.425-7.429s-7.425-7.433-7.425-7.433c0 0 1.106-1.11 1.106-1.11s7.425 7.433 7.425 7.433c0 0 1.094 1.11 1.094 1.11s7.425 7.429 7.425 7.429c0 0 0 0 0 0z"/> <path fill="#fff" d="M15.356 30.89c0 0 1.106 1.11 1.106 1.11s7.413-7.421 7.413-7.421c0 0 7.425 7.421 7.425 7.421s1.106-1.11 1.106-1.11c0 0-7.425-7.429-7.425-7.429s7.425-7.433 7.425-7.433c0 0-1.106-1.11-1.106-1.11s-7.425 7.433-7.425 7.433c0 0-1.094 1.11-1.094 1.11s-7.425 7.429-7.425 7.429c0 0 0 0 0 0z"/> 
    </symbol>
    <symbol id="icon_windows-tamplate" viewBox="0 0 54 32">
       <path fill="#555" d="M2.147 1.34h49.617c0.446 0 0.807 0.361 0.807 0.807v27.627c0 0.446-0.361 0.807-0.807 0.807h-49.617c-0.446 0-0.807-0.361-0.807-0.807v-27.627c0-0.446 0.361-0.807 0.807-0.807z"/> <path fill="#f7635f" d="M2.995 2.837c0 0.174-0.141 0.315-0.315 0.315s-0.315-0.141-0.315-0.315c0-0.174 0.141-0.315 0.315-0.315s0.315 0.141 0.315 0.315z"/> <path fill="#f7c573" d="M3.941 2.837c0 0.174-0.141 0.315-0.315 0.315s-0.315-0.141-0.315-0.315c0-0.174 0.141-0.315 0.315-0.315s0.315 0.141 0.315 0.315z"/> <path fill="#9dcb7d" d="M4.887 2.837c0 0.174-0.141 0.315-0.315 0.315s-0.315-0.141-0.315-0.315c0-0.174 0.141-0.315 0.315-0.315s0.315 0.141 0.315 0.315z"/> <path fill="#fff" d="M6.24 1.892h44.742c0.225 0 0.408 0.182 0.408 0.408v0.919c0 0.225-0.182 0.408-0.408 0.408h-44.742c-0.225 0-0.408-0.182-0.408-0.408v-0.919c0-0.225 0.182-0.408 0.408-0.408z"/> 
    </symbol></svg>