<?xml version="1.0" standalone="no"?>
<!DOCTYPE svg PUBLIC "-//W3C//DTD SVG 20010904//EN"
 "http://www.w3.org/TR/2001/REC-SVG-20010904/DTD/svg10.dtd">
<svg version="1.0" xmlns="http://www.w3.org/2000/svg"
 width="256.000000pt" height="256.000000pt" viewBox="0 0 256.000000 256.000000"
 preserveAspectRatio="xMidYMid meet">
<metadata>
Created by potrace 1.11, written by Peter Selinger 2001-2013
</metadata>
<g transform="translate(0.000000,256.000000) scale(0.100000,-0.100000)"
fill="#000000" stroke="none">
<path d="M1180 2553 c-136 -23 -259 -85 -360 -184 -81 -80 -155 -202 -174
-290 -21 -91 -24 -131 -25 -269 -1 -85 -6 -157 -11 -160 -32 -20 -38 -193 -8
-227 9 -10 20 -30 23 -46 10 -38 41 -57 94 -57 31 0 51 6 66 20 l22 21 17 -36
c9 -19 38 -65 63 -102 44 -65 45 -68 39 -125 -6 -58 -25 -107 -53 -140 -13
-15 -17 -15 -42 -1 -25 15 -32 14 -111 -12 -47 -16 -89 -30 -95 -31 -5 -1 -36
-12 -68 -24 -107 -40 -214 -148 -259 -260 -20 -50 -23 -76 -26 -292 -3 -205
-1 -241 13 -272 33 -69 -19 -66 1000 -66 1020 0 956 -4 990 67 22 46 21 450
-2 526 -31 108 -115 213 -214 269 -24 14 -102 45 -173 69 -123 40 -131 42
-157 27 -25 -15 -29 -15 -43 1 -24 27 -46 87 -52 145 -6 51 -4 56 39 119 25
37 54 83 63 102 l17 36 22 -21 c15 -14 35 -20 66 -20 52 0 84 19 93 56 4 15
16 38 26 51 25 33 25 183 0 211 -15 16 -18 47 -23 203 -5 190 -12 229 -64 349
-11 25 -20 64 -22 88 -1 24 -8 62 -15 85 l-12 42 -68 7 c-46 4 -79 14 -104 31
-71 46 -88 54 -166 81 -62 22 -101 28 -180 30 -56 2 -112 1 -126 -1z m-130
-142 c-29 -27 -52 -40 -80 -44 -40 -5 -40 -5 -18 13 25 19 118 69 131 70 4 0
-10 -17 -33 -39z m-335 -571 c5 -72 4 -102 -3 -95 -10 9 -15 76 -13 169 2 68
9 35 16 -74z m1142 -77 c-2 -16 -4 -5 -4 22 0 28 2 40 4 28 2 -13 2 -35 0 -50z"/>
</g>
</svg>
