<?xml version="1.0" encoding="utf-8"?>
<svg version="1.1" id="Слой_1" xmlns="http://www.w3.org/2000/svg" xmlns:xlink="http://www.w3.org/1999/xlink" x="0px" y="0px"
	 viewBox="0 0 14 5" style="enable-background:new 0 0 14 5;" xml:space="preserve">
<path fill="#000" d="M3.5,5C3.4,5,3.2,4.9,3.1,4.8L0,1.3l-3.1,3.6c-0.2,0.2-0.5,0.2-0.7,0c-0.2-0.2-0.2-0.5,0-0.7l3.5-4C-0.3,0.1-0.1,0,0,0
	s0.3,0.1,0.4,0.2l3.5,4c0.2,0.2,0.2,0.5,0,0.7C3.7,5,3.6,5,3.5,5L3.5,5z"/>
<path fill="#000" d="M17.5,5c-0.1,0-0.3-0.1-0.4-0.2L14,1.3l-3.1,3.6c-0.2,0.2-0.5,0.2-0.7,0c-0.2-0.2-0.2-0.5,0-0.7l3.5-4C13.7,0.1,13.8,0,14,0
	s0.3,0.1,0.4,0.2l3.5,4c0.2,0.2,0.2,0.5,0,0.7C17.7,5,17.6,5,17.5,5L17.5,5z"/>
<path fill="#000" d="M10.5,5c-0.1,0-0.3-0.1-0.4-0.2L7,1.3L3.9,4.8C3.7,5,3.4,5.1,3.2,4.9C3,4.7,2.9,4.4,3.1,4.2l3.5-4C6.7,0.1,6.8,0,7,0
	c0.1,0,0.3,0.1,0.4,0.2l3.5,4c0.2,0.2,0.2,0.5,0,0.7C10.7,5,10.6,5,10.5,5L10.5,5z"/>
</svg>
