<svg xmlns="http://www.w3.org/2000/svg" style="width:0; height:0; visibility:hidden;">
    <symbol id="icon_arrow-down" viewBox="0 0 384.6 644.3">
        <path fill="currentColor" d="M234,599.8l75.6-76l-45-44.8l-44.3,44.5l-1.1-140.7c42-6,79.5-25.5,107.9-54.1c34.5-34.7,55.6-82.8,55.2-135.9
	C381.4,86.6,294.6,0.3,188.3,0C135.2-0.1,87.3,21.3,52.8,56C18.3,90.7-2.9,138.7-2.4,191.8c0.7,94.1,69,172.6,158.4,189.5l1.2,142
	l-45-44.7l-44.3,44.6l76.8,76.4l45,44.8L234,599.8z M60.7,192c-0.3-34.5,12.9-66.9,37.1-91.2s56.5-37.7,91-37.6
	c34.5,0.1,67.1,13.6,91.7,38.1c24.6,24.5,38.3,56.9,38.6,91.4c0.3,34.5-12.9,66.9-37.1,91.2c-24.2,24.3-56.5,37.7-91,37.6
	c-34.5-0.1-67.1-13.6-91.7-38.1S61,226.5,60.7,192z"/> 
    </symbol>
    <symbol id="icon_behance" viewBox="0 0 16 16">
       <path fill="currentColor" d="M4.641 3.206c0.472 0 0.897 0.041 1.284 0.125 0.388 0.081 0.716 0.219 0.994 0.406 0.275 0.188 0.487 0.438 0.644 0.75 0.15 0.309 0.225 0.697 0.225 1.156 0 0.497-0.112 0.909-0.338 1.241-0.228 0.331-0.559 0.6-1.003 0.813 0.606 0.175 1.053 0.481 1.353 0.916 0.3 0.438 0.444 0.963 0.444 1.581 0 0.5-0.097 0.928-0.287 1.291-0.194 0.366-0.456 0.662-0.778 0.891-0.325 0.231-0.7 0.4-1.119 0.509-0.416 0.109-0.844 0.166-1.287 0.166h-4.772v-9.844h4.641zM4.359 7.181c0.384 0 0.703-0.091 0.953-0.275 0.25-0.181 0.369-0.481 0.369-0.894 0-0.228-0.041-0.419-0.122-0.566-0.084-0.147-0.194-0.263-0.334-0.344-0.138-0.084-0.294-0.141-0.478-0.172-0.178-0.034-0.366-0.050-0.556-0.050h-2.025v2.3h2.194zM4.478 11.372c0.213 0 0.416-0.019 0.606-0.063 0.194-0.044 0.366-0.109 0.509-0.209 0.144-0.097 0.266-0.225 0.353-0.394 0.088-0.166 0.128-0.378 0.128-0.637 0-0.506-0.144-0.869-0.428-1.088-0.284-0.216-0.662-0.322-1.131-0.322h-2.35v2.709h2.313z"/> <path fill="currentColor" d="M11.331 11.338c0.294 0.287 0.716 0.431 1.266 0.431 0.394 0 0.738-0.1 1.022-0.3s0.456-0.412 0.522-0.631h1.725c-0.278 0.859-0.697 1.469-1.272 1.838-0.566 0.369-1.259 0.556-2.063 0.556-0.563 0-1.066-0.091-1.519-0.269-0.453-0.181-0.831-0.434-1.15-0.766-0.309-0.331-0.553-0.725-0.725-1.188-0.169-0.459-0.256-0.969-0.256-1.519 0-0.534 0.088-1.031 0.262-1.491 0.178-0.463 0.422-0.859 0.747-1.194s0.706-0.6 1.156-0.794c0.447-0.194 0.941-0.291 1.488-0.291 0.603 0 1.131 0.116 1.584 0.353 0.45 0.234 0.822 0.55 1.113 0.944s0.497 0.847 0.625 1.353c0.128 0.506 0.172 1.034 0.137 1.588h-5.147c0 0.559 0.188 1.094 0.484 1.378zM13.578 7.594c-0.231-0.256-0.628-0.397-1.106-0.397-0.313 0-0.572 0.053-0.778 0.159-0.203 0.106-0.369 0.237-0.497 0.394-0.125 0.156-0.213 0.325-0.262 0.503-0.050 0.172-0.081 0.331-0.091 0.469h3.188c-0.047-0.5-0.219-0.869-0.453-1.128z"/> <path fill="currentColor" d="M10.444 4h3.991v0.972h-3.991v-0.972z"/> 
    </symbol>
    <symbol id="icon_bg-title" viewBox="0 0 14 5">
       <path d="M3.5,5C3.4,5,3.2,4.9,3.1,4.8L0,1.3l-3.1,3.6c-0.2,0.2-0.5,0.2-0.7,0c-0.2-0.2-0.2-0.5,0-0.7l3.5-4C-0.3,0.1-0.1,0,0,0
	s0.3,0.1,0.4,0.2l3.5,4c0.2,0.2,0.2,0.5,0,0.7C3.7,5,3.6,5,3.5,5L3.5,5z"/> <path d="M17.5,5c-0.1,0-0.3-0.1-0.4-0.2L14,1.3l-3.1,3.6c-0.2,0.2-0.5,0.2-0.7,0c-0.2-0.2-0.2-0.5,0-0.7l3.5-4C13.7,0.1,13.8,0,14,0
	s0.3,0.1,0.4,0.2l3.5,4c0.2,0.2,0.2,0.5,0,0.7C17.7,5,17.6,5,17.5,5L17.5,5z"/> <path d="M10.5,5c-0.1,0-0.3-0.1-0.4-0.2L7,1.3L3.9,4.8C3.7,5,3.4,5.1,3.2,4.9C3,4.7,2.9,4.4,3.1,4.2l3.5-4C6.7,0.1,6.8,0,7,0
	c0.1,0,0.3,0.1,0.4,0.2l3.5,4c0.2,0.2,0.2,0.5,0,0.7C10.7,5,10.6,5,10.5,5L10.5,5z"/> 
    </symbol>
    <symbol id="icon_bullhorn" viewBox="0 0 16 16">
       <path fill="#000000" d="M16 6.707c0-3.139-0.919-5.687-2.054-5.707 0.005-0 0.009-0 0.014-0h-1.296c0 0-3.044 2.287-7.425 3.184-0.134 0.708-0.219 1.551-0.219 2.523s0.085 1.816 0.219 2.523c4.382 0.897 7.425 3.184 7.425 3.184h1.296c-0.005 0-0.009-0-0.014-0.001 1.136-0.020 2.054-2.567 2.054-5.707zM13.513 11.551c-0.147 0-0.305-0.152-0.387-0.243-0.197-0.22-0.387-0.562-0.55-0.989-0.363-0.957-0.564-2.239-0.564-3.611s0.2-2.655 0.564-3.611c0.162-0.428 0.353-0.77 0.55-0.99 0.081-0.091 0.24-0.243 0.387-0.243s0.305 0.152 0.387 0.243c0.197 0.22 0.387 0.562 0.55 0.99 0.363 0.957 0.564 2.239 0.564 3.611s-0.2 2.655-0.564 3.611c-0.162 0.428-0.353 0.77-0.55 0.989-0.081 0.091-0.24 0.243-0.387 0.243zM3.935 6.707c0-0.812 0.060-1.6 0.173-2.33-0.74 0.102-1.39 0.161-2.193 0.161-1.048 0-1.048 0-1.048 0l-0.867 1.479v1.378l0.867 1.479c0 0 0 0 1.048 0 0.803 0 1.453 0.059 2.193 0.161-0.113-0.729-0.173-1.518-0.173-2.33zM5.752 10.034l-2-0.383 1.279 5.024c0.066 0.26 0.324 0.391 0.573 0.291l1.852-0.741c0.249-0.1 0.349-0.374 0.222-0.611l-1.926-3.581zM13.513 8.574c-0.057 0-0.118-0.059-0.149-0.094-0.076-0.085-0.149-0.217-0.212-0.381-0.14-0.369-0.217-0.863-0.217-1.392s0.077-1.023 0.217-1.392c0.063-0.165 0.136-0.297 0.212-0.381 0.031-0.035 0.092-0.094 0.149-0.094s0.118 0.059 0.149 0.094c0.076 0.085 0.149 0.217 0.212 0.381 0.14 0.369 0.217 0.863 0.217 1.392s-0.077 1.023-0.217 1.392c-0.063 0.165-0.136 0.297-0.212 0.381-0.031 0.035-0.092 0.094-0.149 0.094z"/> 
    </symbol>
    <symbol id="icon_display" viewBox="0 0 16 16">
       <path fill="currentColor" d="M0 1v10h16v-10h-16zM15 10h-14v-8h14v8zM10.5 12h-5l-0.5 2-1 1h8l-1-1z"/> 
    </symbol>
    <symbol id="icon_facebook" viewBox="0 0 16 16">
       <path fill="currentColor" d="M14.5 0h-13c-0.825 0-1.5 0.675-1.5 1.5v13c0 0.825 0.675 1.5 1.5 1.5h6.5v-7h-2v-2h2v-1c0-1.653 1.347-3 3-3h2v2h-2c-0.55 0-1 0.45-1 1v1h3l-0.5 2h-2.5v7h4.5c0.825 0 1.5-0.675 1.5-1.5v-13c0-0.825-0.675-1.5-1.5-1.5z"/> 
    </symbol>
    <symbol id="icon_fire" viewBox="0 0 16 16">
       <path fill="#000000" d="M5.016 16c-1.066-2.219-0.498-3.49 0.321-4.688 0.897-1.312 1.129-2.61 1.129-2.61s0.706 0.917 0.423 2.352c1.246-1.387 1.482-3.598 1.293-4.445 2.817 1.969 4.021 6.232 2.399 9.392 8.631-4.883 2.147-12.19 1.018-13.013 0.376 0.823 0.448 2.216-0.313 2.893-1.287-4.879-4.468-5.879-4.468-5.879 0.376 2.516-1.364 5.268-3.042 7.324-0.059-1.003-0.122-1.696-0.649-2.656-0.118 1.823-1.511 3.309-1.889 5.135-0.511 2.473 0.383 4.284 3.777 6.197z"/> 
    </symbol>
    <symbol id="icon_location" viewBox="0 0 16 16">
       <path fill="#000000" d="M8 0c-2.761 0-5 2.239-5 5 0 5 5 11 5 11s5-6 5-11c0-2.761-2.239-5-5-5zM8 8.063c-1.691 0-3.063-1.371-3.063-3.063s1.371-3.063 3.063-3.063 3.063 1.371 3.063 3.063-1.371 3.063-3.063 3.063zM6.063 5c0-1.070 0.867-1.938 1.938-1.938s1.938 0.867 1.938 1.938c0 1.070-0.867 1.938-1.938 1.938s-1.938-0.867-1.938-1.938z"/> 
    </symbol>
    <symbol id="icon_lock" viewBox="0 0 16 16">
       <path fill="#000000" d="M9.25 7h-0.25v-3c0-1.654-1.346-3-3-3h-2c-1.654 0-3 1.346-3 3v3h-0.25c-0.412 0-0.75 0.338-0.75 0.75v7.5c0 0.412 0.338 0.75 0.75 0.75h8.5c0.412 0 0.75-0.338 0.75-0.75v-7.5c0-0.412-0.338-0.75-0.75-0.75zM3 4c0-0.551 0.449-1 1-1h2c0.551 0 1 0.449 1 1v3h-4v-3z"/> 
    </symbol>
    <symbol id="icon_pencil" viewBox="0 0 16 16">
       <path fill="currentColor" d="M6 10l2-1 7-7-1-1-7 7-1 2zM4.52 13.548c-0.494-1.043-1.026-1.574-2.069-2.069l1.548-4.262 2-1.217 6-6h-3l-6 6-3 10 10-3 6-6v-3l-6 6-1.217 2z"/> 
    </symbol>
    <symbol id="icon_quote-left" viewBox="0 0 75.999 75.999">
       <g> <g> <path style="fill:#030104;" d="M14.579,5C6.527,5,0,11.716,0,20c0,8.285,6.527,15,14.579,15C29.157,35,19.438,64,0,64v7
			C34.69,71,48.286,5,14.579,5z M56.579,5C48.527,5,42,11.716,42,20c0,8.285,6.527,15,14.579,15C71.157,35,61.438,64,42,64v7
			C76.69,71,90.286,5,56.579,5z"/> </g> </g>                
    </symbol>
    <symbol id="icon_quote-right" viewBox="0 0 255.226 255.226">
       <g> <g> <g> <g> <path style="fill:#090509;" d="M76.532,27.975l-7.405-5.244l-0.254-0.191l-0.477-0.191l-5.403-2.574l0.159,0.381
					c-5.117-2.098-10.488-3.591-16.336-3.591C20.945,16.565,0,38.336,0,65.192s20.976,48.627,46.816,48.627
					c8.295,0,15.955-2.415,22.724-6.356c-2.32,25.998-15.415,63.915-63.406,102.594c-6.706,5.403-7.946,15.446-2.733,22.407
					c3.051,4.1,7.596,6.198,12.173,6.198c3.305,0,6.611-1.112,9.439-3.337c58.893-47.547,73.608-96.364,75.579-128.973
					c3.369-41.699-9.28-63.629-20.849-75.07L76.532,27.975z"/> <path style="fill:#090509;" d="M233.76,31.28l-3.242-3.305l-7.374-5.244l-0.254-0.191l-0.509-0.191l-5.403-2.574l0.159,0.381
					c-5.117-2.098-10.52-3.591-16.368-3.591c-25.839,0-46.752,21.771-46.752,48.627s20.913,48.627,46.816,48.627
					c8.295,0,15.955-2.415,22.724-6.356c-2.288,25.998-15.383,63.915-63.374,102.594c-6.738,5.403-7.946,15.446-2.733,22.407
					c3.051,4.1,7.596,6.198,12.173,6.198c3.305,0,6.611-1.112,9.439-3.337c58.925-47.547,73.608-96.364,75.611-128.973
					C258.042,64.652,245.393,42.722,233.76,31.28z"/> </g> </g> </g> </g>                
    </symbol>
    <symbol id="icon_slider-next" viewBox="0 0 20 20">
       <path fill="currentColor" d="M16.218 3.782c-1.794-1.794-4.18-2.782-6.718-2.782s-4.923 0.988-6.718 2.782-2.782 4.18-2.782 6.717 0.988 4.923 2.782 6.718 4.18 2.782 6.718 2.782 4.923-0.988 6.718-2.782 2.782-4.18 2.782-6.718-0.988-4.923-2.782-6.717zM9.5 19c-4.687 0-8.5-3.813-8.5-8.5s3.813-8.5 8.5-8.5c4.687 0 8.5 3.813 8.5 8.5s-3.813 8.5-8.5 8.5z"/> <path fill="currentColor" d="M8 16c-0.128 0-0.256-0.049-0.354-0.146-0.195-0.195-0.195-0.512 0-0.707l4.646-4.646-4.646-4.646c-0.195-0.195-0.195-0.512 0-0.707s0.512-0.195 0.707 0l5 5c0.195 0.195 0.195 0.512 0 0.707l-5 5c-0.098 0.098-0.226 0.146-0.354 0.146z"/> 
    </symbol>
    <symbol id="icon_slider-prev" viewBox="0 0 20 20">
       <path fill="currentColor" d="M2.782 3.782c1.794-1.794 4.18-2.782 6.718-2.782s4.923 0.988 6.718 2.782 2.782 4.18 2.782 6.717-0.988 4.923-2.782 6.718-4.18 2.782-6.718 2.782-4.923-0.988-6.718-2.782-2.782-4.18-2.782-6.718 0.988-4.923 2.782-6.717zM9.5 19c4.687 0 8.5-3.813 8.5-8.5s-3.813-8.5-8.5-8.5c-4.687 0-8.5 3.813-8.5 8.5s3.813 8.5 8.5 8.5z"/> <path fill="currentColor" d="M11 16c0.128 0 0.256-0.049 0.354-0.146 0.195-0.195 0.195-0.512 0-0.707l-4.646-4.646 4.646-4.646c0.195-0.195 0.195-0.512 0-0.707s-0.512-0.195-0.707 0l-5 5c-0.195 0.195-0.195 0.512 0 0.707l5 5c0.098 0.098 0.226 0.146 0.354 0.146z"/> 
    </symbol>
    <symbol id="icon_stats-bars" viewBox="0 0 16 16">
       <path fill="currentColor" d="M0 13h16v2h-16zM2 9h2v3h-2zM5 5h2v7h-2zM8 8h2v4h-2zM11 2h2v10h-2z"/> 
    </symbol>
    <symbol id="icon_twitter" viewBox="0 0 16 16">
       <path fill="currentColor" d="M16 3.538c-0.588 0.263-1.222 0.438-1.884 0.516 0.678-0.406 1.197-1.050 1.444-1.816-0.634 0.375-1.338 0.65-2.084 0.797-0.6-0.638-1.453-1.034-2.397-1.034-1.813 0-3.281 1.469-3.281 3.281 0 0.256 0.028 0.506 0.084 0.747-2.728-0.138-5.147-1.444-6.766-3.431-0.281 0.484-0.444 1.050-0.444 1.65 0 1.138 0.578 2.144 1.459 2.731-0.538-0.016-1.044-0.166-1.488-0.409 0 0.013 0 0.028 0 0.041 0 1.591 1.131 2.919 2.634 3.219-0.275 0.075-0.566 0.116-0.866 0.116-0.212 0-0.416-0.022-0.619-0.059 0.419 1.303 1.631 2.253 3.066 2.281-1.125 0.881-2.538 1.406-4.078 1.406-0.266 0-0.525-0.016-0.784-0.047 1.456 0.934 3.181 1.475 5.034 1.475 6.037 0 9.341-5.003 9.341-9.341 0-0.144-0.003-0.284-0.009-0.425 0.641-0.459 1.197-1.038 1.637-1.697z"/> 
    </symbol>
    <symbol id="icon_wordpress" viewBox="0 0 16 16">
       <path fill="currentColor" d="M2 8c0 2.313 1.38 4.312 3.382 5.259l-2.862-7.637c-0.333 0.727-0.52 1.531-0.52 2.378zM12.050 7.705c0-0.722-0.266-1.222-0.495-1.612-0.304-0.482-0.589-0.889-0.589-1.371 0-0.537 0.418-1.037 1.008-1.037 0.027 0 0.052 0.003 0.078 0.005-1.067-0.953-2.49-1.534-4.052-1.534-2.096 0-3.94 1.048-5.013 2.634 0.141 0.004 0.274 0.007 0.386 0.007 0.627 0 1.599-0.074 1.599-0.074 0.323-0.018 0.361 0.444 0.038 0.482 0 0-0.325 0.037-0.687 0.055l2.185 6.33 1.313-3.835-0.935-2.495c-0.323-0.019-0.629-0.055-0.629-0.055-0.323-0.019-0.285-0.5 0.038-0.482 0 0 0.991 0.074 1.58 0.074 0.627 0 1.599-0.074 1.599-0.074 0.323-0.018 0.362 0.444 0.038 0.482 0 0-0.326 0.037-0.687 0.055l2.168 6.282 0.599-1.947c0.259-0.809 0.457-1.389 0.457-1.889zM8.105 8.511l-1.8 5.095c0.538 0.154 1.106 0.238 1.695 0.238 0.699 0 1.369-0.117 1.992-0.331-0.016-0.025-0.031-0.052-0.043-0.081l-1.844-4.921zM13.265 5.196c0.026 0.186 0.040 0.386 0.040 0.601 0 0.593-0.114 1.259-0.456 2.093l-1.833 5.16c1.784-1.013 2.983-2.895 2.983-5.051 0-1.016-0.267-1.971-0.735-2.803zM8 0c-4.418 0-8 3.582-8 8s3.582 8 8 8 8-3.582 8-8-3.582-8-8-8zM8 15c-3.866 0-7-3.134-7-7s3.134-7 7-7 7 3.134 7 7-3.134 7-7 7z"/> 
    </symbol></svg>