<?xml version="1.0" encoding="utf-8"?>
<!-- Generator: Avocode 2.6.0 - http://avocode.com -->
<svg height="12" width="16" xmlns:xlink="http://www.w3.org/1999/xlink" xmlns="http://www.w3.org/2000/svg" viewBox="0 0 16 12">
    <path fill="#3b3b3b" fill-rule="evenodd" d="M 12 6.02 C 12 6.02 16 1.98 16 1.98 C 16 1.98 16 10.03 16 10.03 C 16 10.03 12 6.02 12 6.02 Z M 0 0 C 0 0 15.96 0 15.96 0 C 15.96 0 8 8.09 8 8.09 C 8 8.09 0 0 0 0 Z M 0 10.09 C 0 10.09 0 1.94 0 1.94 C 0 1.94 4 6.02 4 6.02 C 4 6.02 0 10.09 0 10.09 Z M 8 10.34 C 8 10.34 10.99 6.98 10.99 6.98 C 10.99 6.98 15.56 12 15.56 12 C 15.56 12 0.41 12 0.41 12 C 0.41 12 4.98 7.02 4.98 7.02 C 4.98 7.02 8 10.34 8 10.34 Z" />
</svg>