<?xml version="1.0" encoding="utf-8"?>
<!-- Generator: Avocode 2.6.0 - http://avocode.com -->
<svg height="16" width="16" xmlns:xlink="http://www.w3.org/1999/xlink" xmlns="http://www.w3.org/2000/svg" viewBox="0 0 16 16">
    <path fill="#3b3b3b" fill-rule="evenodd" d="M 11 9.32 C 11 9.32 9.37 10.95 9.37 10.95 C 9.37 10.95 10.18 11.77 10.18 11.77 C 10.18 11.77 8.17 11.3 6.14 9.28 C 4.48 7.62 3.8 6.06 3.78 5.37 C 3.78 5.37 4.46 6.05 4.46 6.05 C 4.46 6.05 6.1 4.42 6.1 4.42 C 6.1 4.42 2.01 0.33 2.01 0.33 C 2.01 0.33 0.38 1.97 0.38 1.97 C 0.38 1.97 0.41 2 0.41 2 C -0.65 3.72 0.94 7.7 4.33 11.09 C 7.94 14.7 11.81 16.67 13.45 15.04 C 13.45 15.04 15.08 13.41 15.08 13.41 C 15.08 13.41 11 9.32 11 9.32 Z" />
</svg>