<?xml version="1.0" encoding="utf-8"?>
<!-- Generator: Avocode 2.6.0 - http://avocode.com -->
<svg height="15" width="16" xmlns:xlink="http://www.w3.org/1999/xlink" xmlns="http://www.w3.org/2000/svg" viewBox="0 0 16 15">
    <path fill="#3b3b3b" fill-rule="evenodd" d="M 14 11.25 C 13.02 10.76 11.6 9.58 9.48 9.19 C 10 8.56 10.42 7.58 10.86 6.44 C 11.08 5.75 11.04 5.18 11.04 4.38 C 11.04 3.77 11.16 2.83 11 2.28 C 10.54 0.49 9.36 0 7.98 0 C 6.58 0 5.4 0.49 4.94 2.28 C 4.8 2.83 4.9 3.79 4.9 4.38 C 4.9 5.18 4.86 5.75 5.12 6.44 C 5.54 7.58 5.94 8.58 6.48 9.19 C 4.38 9.6 2.94 10.78 2 11.25 C 0 12.19 0 13.23 0 13.23 C 0 13.23 0 13.63 0 13.63 C 0 14.31 0.74 15 1.46 15 C 1.46 15 14.52 15 14.52 15 C 15.44 15 16 14.25 16 13.57 C 16 13.57 16 13.23 16 13.23 C 16 13.23 15.98 12.19 14 11.25 Z" />
</svg>